<svg width="117" height="42" viewBox="0 0 117 42" fill="none" xmlns="http://www.w3.org/2000/svg">
<path opacity="0.3" d="M113.339 5.21968C113.46 4.6809 113.122 4.14573 112.583 4.02436L103.803 2.04644C103.265 1.92506 102.729 2.26344 102.608 2.80222C102.487 3.341 102.825 3.87617 103.364 3.99754L111.168 5.7557L109.41 13.5601C109.289 14.0989 109.627 14.6341 110.166 14.7554C110.705 14.8768 111.24 14.5384 111.361 13.9996L113.339 5.21968ZM1.77972 28.4725C24.296 33.5573 41.675 34.5129 58.664 30.8591C75.636 27.2088 92.1296 18.9766 112.898 5.84513L111.829 4.15469C91.1244 17.2459 74.8688 25.3281 58.2435 28.9038C41.6352 32.4758 24.569 31.5686 2.22028 26.5216L1.77972 28.4725Z" fill="black"/>
</svg>
