<svg width="136" height="136" viewBox="0 0 136 136" fill="none" xmlns="http://www.w3.org/2000/svg">
<g clip-path="url(#clip0)">
<path d="M133.198 35.353C131.63 29.5269 127.037 24.9345 121.212 23.3656C110.569 20.4531 67.9987 20.4531 67.9987 20.4531C67.9987 20.4531 25.4293 20.4531 14.7867 23.2546C9.07375 24.8224 4.36827 29.5279 2.80046 35.353C0 45.9945 0 68.0641 0 68.0641C0 68.0641 0 90.2448 2.80046 100.775C4.36931 106.6 8.96169 111.194 14.7878 112.763C25.5414 115.675 67.9997 115.675 67.9997 115.675C67.9997 115.675 110.569 115.675 121.212 112.874C127.038 111.306 131.63 106.712 133.199 100.887C135.999 90.2448 135.999 68.1762 135.999 68.1762C135.999 68.1762 136.111 45.9945 133.198 35.353Z" fill="#FF0000"/>
<path d="M54.4446 88.4529L89.8443 68.0641L54.4446 47.6753V88.4529Z" fill="white"/>
</g>
<defs>
<clipPath id="clip0">
<rect width="136" height="136" fill="white"/>
</clipPath>
</defs>
</svg>
